<?xml version="1.0" standalone="no"?>
<!DOCTYPE svg PUBLIC "-//W3C//DTD SVG 20010904//EN"
 "http://www.w3.org/TR/2001/REC-SVG-20010904/DTD/svg10.dtd">
<svg version="1.0" xmlns="http://www.w3.org/2000/svg"
 width="512.000000pt" height="512.000000pt" viewBox="0 0 512.000000 512.000000"
 preserveAspectRatio="xMidYMid meet">

<g transform="translate(0.000000,512.000000) scale(0.100000,-0.100000)"
fill="#000000" stroke="none">
<path d="M2385 5015 c-5 -2 -82 -14 -170 -25 -158 -21 -379 -74 -461 -111 -22
-11 -45 -19 -52 -19 -38 0 -388 -173 -458 -227 -5 -4 -21 -14 -35 -22 -13 -8
-48 -33 -78 -55 -29 -23 -61 -45 -69 -51 -9 -5 -25 -20 -35 -32 -10 -13 -24
-23 -32 -23 -7 0 -27 -16 -44 -35 -17 -19 -35 -35 -40 -35 -12 0 -251 -251
-251 -263 0 -6 -9 -19 -21 -31 -31 -32 -149 -193 -149 -204 0 -6 -3 -12 -7
-14 -8 -3 -30 -39 -60 -98 -10 -19 -21 -37 -24 -40 -9 -7 -95 -187 -115 -240
-140 -377 -177 -571 -177 -930 0 -357 42 -576 176 -925 35 -91 128 -272 179
-352 16 -24 28 -45 28 -49 0 -8 124 -175 149 -200 12 -12 21 -26 21 -33 0 -17
317 -331 334 -331 8 0 23 -11 34 -25 11 -14 23 -25 26 -25 3 0 41 -27 83 -60
43 -33 83 -60 90 -60 6 0 13 -4 15 -8 7 -18 227 -136 353 -190 124 -53 372
-131 486 -152 211 -40 541 -60 659 -41 36 6 121 18 190 26 279 35 666 175 885
320 29 19 56 35 60 35 4 0 43 27 87 60 43 33 81 60 84 60 3 0 15 11 26 25 11
14 26 25 34 25 15 0 304 277 304 292 0 5 14 21 30 35 17 13 30 31 30 38 0 7 4
15 8 17 11 4 152 193 152 203 0 4 15 31 33 59 30 46 117 218 177 351 12 28 30
77 40 111 10 34 23 71 30 83 6 12 20 66 30 119 11 53 26 124 34 157 50 200 48
672 -4 890 -10 44 -26 115 -34 158 -9 43 -21 87 -27 99 -6 11 -20 51 -30 87
-10 36 -25 80 -32 96 -51 112 -81 175 -99 210 -11 22 -30 58 -40 80 -11 22
-26 47 -33 55 -7 8 -25 37 -40 64 -29 54 -125 185 -150 206 -8 7 -15 18 -15
25 0 7 -13 25 -30 38 -16 14 -30 30 -30 35 0 13 -309 312 -323 312 -5 0 -17 7
-26 15 -24 24 -175 135 -183 135 -4 0 -26 13 -50 29 -131 88 -400 207 -579
256 -47 13 -97 29 -111 34 -15 5 -91 19 -170 30 -79 12 -171 25 -204 31 -57 9
-357 13 -379 5z m113 -197 l3 -126 -78 -7 c-195 -16 -396 -55 -537 -104 -33
-12 -64 -21 -71 -21 -10 0 -95 202 -95 227 0 15 227 82 385 114 119 24 346 50
380 44 6 -1 11 -54 13 -127z m342 111 c187 -23 392 -73 568 -140 45 -18 81
-35 80 -39 -2 -4 -25 -57 -52 -118 l-48 -111 -52 21 c-176 72 -402 122 -621
139 -85 7 -153 17 -157 23 -10 14 -10 230 -1 240 8 8 156 0 283 -15z m-1130
-266 c23 -60 42 -112 43 -116 1 -5 -65 -43 -148 -85 -188 -97 -364 -217 -472
-321 -12 -11 -26 -21 -31 -21 -4 0 -46 41 -91 90 l-83 90 50 45 c146 131 332
256 529 355 76 38 143 70 150 70 6 0 30 -48 53 -107z m1938 17 c167 -85 450
-284 526 -369 l20 -22 -88 -88 -89 -89 -86 73 c-106 91 -278 206 -399 269 -51
26 -92 49 -92 52 0 16 96 224 103 224 5 0 52 -22 105 -50z m-1115 -77 c2 -5
-25 -143 -59 -308 -35 -165 -80 -379 -99 -475 -20 -96 -43 -205 -51 -241 l-15
-67 -67 -22 c-37 -12 -93 -36 -125 -52 l-58 -29 -464 303 c-255 167 -464 308
-464 313 0 13 125 121 226 195 278 204 638 343 979 379 106 11 192 13 197 4z
m347 -19 c362 -57 708 -217 1003 -463 53 -45 97 -87 97 -94 0 -6 -15 -22 -33
-34 -17 -11 -111 -73 -207 -135 -96 -63 -282 -185 -413 -271 -131 -86 -246
-161 -256 -167 -15 -7 -38 -1 -103 29 -45 22 -102 44 -124 50 -36 10 -42 16
-47 44 -3 17 -33 165 -67 327 -34 162 -74 358 -90 435 -16 77 -36 169 -44 205
-26 110 -32 104 87 96 56 -4 145 -14 197 -22z m-262 -309 c6 -33 42 -215 81
-405 38 -189 69 -346 67 -347 -2 -2 -27 1 -56 7 -29 5 -73 10 -98 10 l-45 0 8
343 c6 285 11 441 14 467 3 18 20 -26 29 -75z m-1640 -105 l83 -90 -86 -97
c-143 -160 -268 -350 -350 -530 -21 -46 -42 -83 -48 -83 -24 0 -227 85 -227
95 0 6 33 76 73 156 77 152 147 264 245 392 66 86 210 247 220 247 4 0 44 -41
90 -90z m3337 -2 c91 -98 196 -236 264 -345 65 -105 151 -267 151 -285 0 -11
-97 -58 -217 -105 -7 -3 -26 25 -47 69 -75 157 -214 361 -336 491 -33 35 -60
72 -60 81 0 16 146 176 161 176 4 0 42 -37 84 -82z m-3108 -345 c61 -93 181
-276 268 -408 87 -132 175 -266 196 -298 l39 -59 -32 -61 c-17 -34 -41 -91
-53 -126 l-21 -64 -425 -89 c-233 -48 -471 -97 -529 -109 -58 -11 -114 -23
-124 -26 -18 -5 -19 0 -13 118 22 393 184 812 437 1129 63 79 133 158 141 159
3 1 56 -74 116 -166z m2912 61 c247 -293 399 -622 460 -996 25 -151 36 -294
24 -301 -4 -3 -148 24 -318 59 -171 35 -415 86 -542 112 l-233 47 -16 50 c-9
27 -33 85 -52 128 -25 55 -33 83 -26 93 5 8 142 216 304 464 162 247 299 448
305 446 5 -1 48 -47 94 -102z m-1406 -380 c403 -70 723 -391 787 -788 19 -117
8 -311 -24 -419 -50 -167 -131 -301 -257 -423 -295 -285 -718 -353 -1082 -174
-254 126 -445 362 -514 637 -26 104 -24 362 5 465 44 161 121 294 241 421 219
229 537 335 844 281z m2062 -66 c98 -242 170 -600 163 -813 l-3 -90 -120 4
c-66 1 -121 4 -122 5 0 0 -6 66 -12 146 -18 236 -45 367 -118 582 -21 59 -35
109 -32 111 6 5 213 95 220 96 4 1 15 -18 24 -41z m-4292 -90 c69 -27 78 -33
73 -52 -3 -11 -21 -75 -41 -140 -41 -138 -61 -242 -77 -410 l-12 -119 -123 6
c-69 3 -126 7 -129 9 -5 6 13 203 27 293 22 139 98 423 124 465 4 6 21 3 43
-6 20 -9 72 -29 115 -46z m1113 -584 c-3 -9 -9 -41 -12 -72 -3 -32 -7 -68 -10
-80 l-5 -24 -287 7 c-158 4 -298 9 -312 11 -14 1 -61 3 -104 3 -44 1 -76 4
-72 9 9 8 738 159 780 161 22 1 27 -3 22 -15z m-1262 -184 l92 0 2 -72 c9
-236 59 -495 133 -687 16 -42 29 -77 29 -79 0 -2 -15 -9 -32 -17 -18 -7 -70
-29 -115 -49 -82 -35 -83 -35 -94 -14 -40 75 -115 336 -145 503 -18 105 -40
386 -31 409 6 15 14 17 38 12 18 -3 73 -6 123 -6z m321 -69 c55 -11 177 -36
270 -56 94 -20 247 -51 340 -71 94 -19 208 -42 254 -52 l84 -17 22 -65 c12
-36 36 -93 53 -126 l31 -61 -101 -154 c-55 -85 -129 -197 -163 -249 -214 -328
-338 -516 -345 -523 -14 -16 -160 156 -256 301 -203 308 -333 713 -334 1041 0
61 1 63 23 57 12 -3 68 -14 122 -25z m3343 13 c298 -6 378 -14 310 -28 -104
-23 -776 -156 -785 -156 -7 0 -8 13 -2 43 4 23 11 68 14 101 l7 59 61 -6 c34
-4 212 -10 395 -13z m604 -80 c-1 -49 -12 -144 -23 -212 -62 -376 -214 -703
-460 -996 -46 -55 -89 -101 -94 -102 -6 -2 -72 92 -148 209 -76 116 -183 280
-237 362 -54 83 -129 196 -166 253 l-66 103 34 77 c20 42 43 100 52 127 l16
50 538 112 c295 61 542 110 547 108 6 -1 9 -38 7 -91z m335 30 c8 -21 -13
-239 -32 -340 -34 -174 -102 -403 -122 -411 -10 -4 -219 71 -231 82 -2 2 5 28
16 57 54 145 112 437 112 564 0 28 3 54 7 57 3 4 60 7 125 7 100 0 120 -3 125
-16z m-282 -765 c66 -26 105 -46 105 -56 0 -23 -93 -209 -162 -323 -81 -135
-188 -277 -291 -386 l-82 -86 -89 91 -88 91 50 52 c163 173 310 390 393 580
19 43 40 78 47 78 7 0 60 -18 117 -41z m-2537 -28 c31 -15 87 -38 124 -50 41
-14 69 -29 72 -39 3 -9 14 -62 25 -117 55 -266 181 -875 189 -913 9 -36 8 -44
-6 -49 -26 -11 -271 16 -392 43 -354 78 -696 254 -955 493 -25 23 -45 45 -45
49 1 4 99 71 218 149 119 77 327 214 462 302 135 89 246 161 248 161 1 0 28
-13 60 -29z m1134 -98 c106 -69 299 -196 428 -281 129 -84 250 -163 267 -175
18 -12 33 -27 33 -34 0 -18 -182 -167 -295 -241 -301 -200 -641 -314 -1002
-338 -88 -6 -103 -5 -103 8 0 8 24 132 54 274 113 536 159 760 164 785 3 23
14 30 70 49 37 13 92 35 122 51 30 15 58 28 62 29 4 0 94 -57 200 -127z
m-2614 57 c52 -126 195 -339 331 -495 44 -52 81 -97 81 -102 0 -5 -38 -46 -84
-92 -76 -76 -87 -83 -102 -70 -47 39 -216 249 -289 359 -107 161 -201 338
-187 352 12 12 201 96 218 97 6 1 21 -22 32 -49z m1831 -57 l64 -6 -8 -311
c-11 -466 -15 -528 -30 -465 -3 13 -41 199 -84 413 l-79 388 36 -6 c21 -4 66
-9 101 -13z m-1321 -617 c114 -105 290 -225 450 -305 l81 -41 -35 -82 c-20
-46 -43 -98 -50 -115 -8 -18 -17 -33 -20 -33 -4 0 -52 23 -108 51 -163 83
-354 214 -495 341 l-50 45 85 92 c47 50 88 91 90 91 3 0 26 -20 52 -44z m2949
-48 c46 -46 83 -88 83 -95 0 -18 -182 -166 -312 -253 -135 -90 -405 -227 -419
-213 -12 12 -90 214 -87 225 2 5 38 24 79 42 153 66 357 196 494 315 39 33 72
60 75 61 2 0 42 -37 87 -82z m-2183 -387 c138 -44 324 -80 493 -94 l148 -12 3
-128 3 -129 -98 7 c-226 15 -401 44 -573 95 -131 39 -260 90 -260 102 0 12 80
198 93 215 6 9 19 7 52 -7 23 -10 86 -32 139 -49z m1418 -26 c11 -27 30 -78
43 -113 l24 -62 -32 -13 c-176 -74 -600 -152 -744 -138 -10 1 -13 33 -13 125
l0 124 68 6 c205 18 412 58 542 105 78 28 89 25 112 -34z"/>
</g>
</svg>
